# xmcd CD database file
#
# Track frame offsets:
#	150
#	15534
#	31421
#
# Disc length: 583 seconds
#
# Revision: 0
# Processed by: cddbd v1.4PL0 Copyright (c) Steve Scherf et al.
# Submitted via: CDex 1.50
#
DISCID=18024503
DTITLE=Baptiste Trotignon - Solo inédits
DYEAR=2002
DGENRE=Jazz
TTITLE0=How about you
TTITLE1=A child is born
TTITLE2=I'll remember April
EXTD=YEAR: 2002
EXTT0=
EXTT1=
EXTT2=
PLAYORDER=
